G04 #@! TF.GenerationSoftware,KiCad,Pcbnew,(5.1.6)-1*
G04 #@! TF.CreationDate,2020-08-19T07:45:27+09:00*
G04 #@! TF.ProjectId,ExiCape,45786943-6170-4652-9e6b-696361645f70,Rev.2.0*
G04 #@! TF.SameCoordinates,Original*
G04 #@! TF.FileFunction,Paste,Bot*
G04 #@! TF.FilePolarity,Positive*
%FSLAX46Y46*%
G04 Gerber Fmt 4.6, Leading zero omitted, Abs format (unit mm)*
G04 Created by KiCad (PCBNEW (5.1.6)-1) date 2020-08-19 07:45:27*
%MOMM*%
%LPD*%
G01*
G04 APERTURE LIST*
G04 APERTURE END LIST*
G04 #@! TO.C,C5*
G36*
G01*
X132290100Y-54524900D02*
X132290100Y-54999900D01*
G75*
G02*
X132052600Y-55237400I-237500J0D01*
G01*
X131477600Y-55237400D01*
G75*
G02*
X131240100Y-54999900I0J237500D01*
G01*
X131240100Y-54524900D01*
G75*
G02*
X131477600Y-54287400I237500J0D01*
G01*
X132052600Y-54287400D01*
G75*
G02*
X132290100Y-54524900I0J-237500D01*
G01*
G37*
G36*
G01*
X134040100Y-54524900D02*
X134040100Y-54999900D01*
G75*
G02*
X133802600Y-55237400I-237500J0D01*
G01*
X133227600Y-55237400D01*
G75*
G02*
X132990100Y-54999900I0J237500D01*
G01*
X132990100Y-54524900D01*
G75*
G02*
X133227600Y-54287400I237500J0D01*
G01*
X133802600Y-54287400D01*
G75*
G02*
X134040100Y-54524900I0J-237500D01*
G01*
G37*
G04 #@! TD*
G04 #@! TO.C,U3*
G36*
G01*
X133665100Y-58342400D02*
X133365100Y-58342400D01*
G75*
G02*
X133215100Y-58192400I0J150000D01*
G01*
X133215100Y-56542400D01*
G75*
G02*
X133365100Y-56392400I150000J0D01*
G01*
X133665100Y-56392400D01*
G75*
G02*
X133815100Y-56542400I0J-150000D01*
G01*
X133815100Y-58192400D01*
G75*
G02*
X133665100Y-58342400I-150000J0D01*
G01*
G37*
G36*
G01*
X132395100Y-58342400D02*
X132095100Y-58342400D01*
G75*
G02*
X131945100Y-58192400I0J150000D01*
G01*
X131945100Y-56542400D01*
G75*
G02*
X132095100Y-56392400I150000J0D01*
G01*
X132395100Y-56392400D01*
G75*
G02*
X132545100Y-56542400I0J-150000D01*
G01*
X132545100Y-58192400D01*
G75*
G02*
X132395100Y-58342400I-150000J0D01*
G01*
G37*
G36*
G01*
X131125100Y-58342400D02*
X130825100Y-58342400D01*
G75*
G02*
X130675100Y-58192400I0J150000D01*
G01*
X130675100Y-56542400D01*
G75*
G02*
X130825100Y-56392400I150000J0D01*
G01*
X131125100Y-56392400D01*
G75*
G02*
X131275100Y-56542400I0J-150000D01*
G01*
X131275100Y-58192400D01*
G75*
G02*
X131125100Y-58342400I-150000J0D01*
G01*
G37*
G36*
G01*
X129855100Y-58342400D02*
X129555100Y-58342400D01*
G75*
G02*
X129405100Y-58192400I0J150000D01*
G01*
X129405100Y-56542400D01*
G75*
G02*
X129555100Y-56392400I150000J0D01*
G01*
X129855100Y-56392400D01*
G75*
G02*
X130005100Y-56542400I0J-150000D01*
G01*
X130005100Y-58192400D01*
G75*
G02*
X129855100Y-58342400I-150000J0D01*
G01*
G37*
G36*
G01*
X129855100Y-63292400D02*
X129555100Y-63292400D01*
G75*
G02*
X129405100Y-63142400I0J150000D01*
G01*
X129405100Y-61492400D01*
G75*
G02*
X129555100Y-61342400I150000J0D01*
G01*
X129855100Y-61342400D01*
G75*
G02*
X130005100Y-61492400I0J-150000D01*
G01*
X130005100Y-63142400D01*
G75*
G02*
X129855100Y-63292400I-150000J0D01*
G01*
G37*
G36*
G01*
X131125100Y-63292400D02*
X130825100Y-63292400D01*
G75*
G02*
X130675100Y-63142400I0J150000D01*
G01*
X130675100Y-61492400D01*
G75*
G02*
X130825100Y-61342400I150000J0D01*
G01*
X131125100Y-61342400D01*
G75*
G02*
X131275100Y-61492400I0J-150000D01*
G01*
X131275100Y-63142400D01*
G75*
G02*
X131125100Y-63292400I-150000J0D01*
G01*
G37*
G36*
G01*
X132395100Y-63292400D02*
X132095100Y-63292400D01*
G75*
G02*
X131945100Y-63142400I0J150000D01*
G01*
X131945100Y-61492400D01*
G75*
G02*
X132095100Y-61342400I150000J0D01*
G01*
X132395100Y-61342400D01*
G75*
G02*
X132545100Y-61492400I0J-150000D01*
G01*
X132545100Y-63142400D01*
G75*
G02*
X132395100Y-63292400I-150000J0D01*
G01*
G37*
G36*
G01*
X133665100Y-63292400D02*
X133365100Y-63292400D01*
G75*
G02*
X133215100Y-63142400I0J150000D01*
G01*
X133215100Y-61492400D01*
G75*
G02*
X133365100Y-61342400I150000J0D01*
G01*
X133665100Y-61342400D01*
G75*
G02*
X133815100Y-61492400I0J-150000D01*
G01*
X133815100Y-63142400D01*
G75*
G02*
X133665100Y-63292400I-150000J0D01*
G01*
G37*
G04 #@! TD*
M02*
