M48
; DRILL file {KiCad (5.1.6)-1} date 08/19/20 07:45:29
; FORMAT={-:-/ absolute / metric / decimal}
; #@! TF.CreationDate,2020-08-19T07:45:29+09:00
; #@! TF.GenerationSoftware,Kicad,Pcbnew,(5.1.6)-1
FMAT,2
METRIC
T1C0.400
T2C0.700
T3C0.750
T4C0.800
T5C0.900
T6C1.000
T7C1.016
T8C1.100
%
G90
G05
T1
X139.566Y-79.523
X140.5Y-92.862
X143.04Y-78.892
X144.945Y-75.717
X146.215Y-71.907
X147.749Y-76.921
T2
X130.34Y-85.242
X132.88Y-85.242
X130.34Y-109.372
X132.88Y-109.372
X143.04Y-114.452
X145.58Y-114.452
X130.34Y-89.052
X132.88Y-89.052
X130.34Y-92.862
X132.88Y-92.862
X158.915Y-116.992
X161.455Y-116.992
X130.34Y-97.942
X132.88Y-97.942
X130.34Y-101.752
X132.88Y-101.752
X148.12Y-85.242
X148.12Y-87.782
X127.8Y-45.872
X127.8Y-48.412
X148.12Y-82.702
X150.66Y-82.702
X130.34Y-81.432
X132.88Y-81.432
X130.34Y-105.562
X132.88Y-105.562
T3
X126.022Y-113.69
X126.022Y-116.23
X129.07Y-123.342
X129.07Y-125.882
X126.022Y-123.342
X126.022Y-125.882
X132.118Y-123.342
X132.118Y-125.882
X122.974Y-113.69
X122.974Y-116.23
X129.07Y-113.69
X129.07Y-116.23
X132.118Y-113.69
X132.118Y-116.23
X122.974Y-123.342
X122.974Y-125.882
T4
X123.99Y-45.912
X123.99Y-48.412
X122.72Y-119.532
X125.26Y-119.532
X127.8Y-119.532
X130.34Y-119.532
X132.88Y-119.532
X157.01Y-67.462
X157.01Y-70.002
X157.01Y-72.542
X157.01Y-75.082
X157.01Y-77.622
X127.8Y-52.222
X130.3Y-52.222
X157.01Y-85.242
X157.01Y-87.782
X157.01Y-90.322
X157.01Y-92.862
X157.01Y-95.402
X120.18Y-50.952
X120.18Y-55.952
X135.42Y-67.462
X137.96Y-67.462
X140.5Y-67.462
X143.04Y-67.462
X145.58Y-67.462
X157.01Y-103.022
X157.01Y-105.562
X157.01Y-108.102
X157.01Y-110.642
X136.69Y-85.242
X136.69Y-87.782
X136.69Y-90.322
X136.69Y-92.862
X136.69Y-95.402
X136.69Y-97.942
X136.69Y-100.482
X136.69Y-103.022
X136.69Y-105.562
X144.31Y-85.242
X144.31Y-87.782
X144.31Y-90.322
X144.31Y-92.862
X144.31Y-95.402
X144.31Y-97.942
X144.31Y-100.482
X144.31Y-103.022
X144.31Y-105.562
X143.04Y-123.977
X145.58Y-123.977
X148.12Y-123.977
X150.66Y-123.977
X153.2Y-123.977
X141.135Y-80.162
X141.135Y-82.662
X118.91Y-45.912
X118.91Y-48.412
X155.74Y-53.492
X155.74Y-56.032
X155.74Y-58.572
X155.74Y-61.112
X155.74Y-63.652
T5
X151.93Y-67.462
X151.93Y-70.002
X151.93Y-72.542
X151.93Y-75.082
X151.93Y-77.622
X125.26Y-81.432
X127.8Y-81.432
X125.26Y-97.942
X127.8Y-97.942
X151.93Y-85.242
X151.93Y-87.782
X151.93Y-90.322
X151.93Y-92.862
X151.93Y-95.402
X125.26Y-89.052
X127.8Y-89.052
X125.26Y-105.562
X127.8Y-105.562
X158.915Y-120.167
X158.915Y-122.707
X158.915Y-125.247
X137.96Y-114.452
X140.5Y-114.452
X125.26Y-101.752
X127.8Y-101.752
X151.93Y-103.022
X151.93Y-105.562
X151.93Y-108.102
X151.93Y-110.642
X131.61Y-45.872
X131.61Y-48.412
X143.04Y-118.897
X145.58Y-118.897
X148.12Y-118.897
X150.66Y-118.897
X153.2Y-118.897
X125.26Y-109.372
X127.8Y-109.372
X125.26Y-85.242
X127.8Y-85.242
X125.26Y-92.862
X127.8Y-92.862
T6
X116.37Y-52.222
X116.37Y-54.762
X135.42Y-110.642
X137.96Y-110.642
X140.5Y-110.642
X143.04Y-110.642
X145.58Y-110.642
X122.085Y-85.242
X122.085Y-87.782
X122.085Y-90.322
X122.085Y-92.862
X122.085Y-95.402
X122.085Y-97.942
X126.53Y-58.572
X126.53Y-61.112
X126.53Y-63.652
X126.53Y-66.192
X126.53Y-68.732
T7
X164.63Y-62.382
X164.63Y-64.922
X164.63Y-67.462
X164.63Y-70.002
X164.63Y-72.542
X164.63Y-75.082
X164.63Y-77.622
X164.63Y-80.162
X164.63Y-82.702
X164.63Y-85.242
X164.63Y-87.782
X164.63Y-90.322
X164.63Y-92.862
X164.63Y-95.402
X164.63Y-97.942
X164.63Y-100.482
X164.63Y-103.022
X164.63Y-105.562
X164.63Y-108.102
X164.63Y-110.642
X164.63Y-113.182
X164.63Y-115.722
X164.63Y-118.262
X167.17Y-62.382
X167.17Y-64.922
X167.17Y-67.462
X167.17Y-70.002
X167.17Y-72.542
X167.17Y-75.082
X167.17Y-77.622
X167.17Y-80.162
X167.17Y-82.702
X167.17Y-85.242
X167.17Y-87.782
X167.17Y-90.322
X167.17Y-92.862
X167.17Y-95.402
X167.17Y-97.942
X167.17Y-100.482
X167.17Y-103.022
X167.17Y-105.562
X167.17Y-108.102
X167.17Y-110.642
X167.17Y-113.182
X167.17Y-115.722
X167.17Y-118.262
X116.37Y-62.382
X116.37Y-64.922
X116.37Y-67.462
X116.37Y-70.002
X116.37Y-72.542
X116.37Y-75.082
X116.37Y-77.622
X116.37Y-80.162
X116.37Y-82.702
X116.37Y-85.242
X116.37Y-87.782
X116.37Y-90.322
X116.37Y-92.862
X116.37Y-95.402
X116.37Y-97.942
X116.37Y-100.482
X116.37Y-103.022
X116.37Y-105.562
X116.37Y-108.102
X116.37Y-110.642
X116.37Y-113.182
X116.37Y-115.722
X116.37Y-118.262
X118.91Y-62.382
X118.91Y-64.922
X118.91Y-67.462
X118.91Y-70.002
X118.91Y-72.542
X118.91Y-75.082
X118.91Y-77.622
X118.91Y-80.162
X118.91Y-82.702
X118.91Y-85.242
X118.91Y-87.782
X118.91Y-90.322
X118.91Y-92.862
X118.91Y-95.402
X118.91Y-97.942
X118.91Y-100.482
X118.91Y-103.022
X118.91Y-105.562
X118.91Y-108.102
X118.91Y-110.642
X118.91Y-113.182
X118.91Y-115.722
X118.91Y-118.262
T8
X160.82Y-51.587
X160.82Y-59.207
X166.535Y-51.587
X166.535Y-59.207
T0
M30
