G04 #@! TF.GenerationSoftware,KiCad,Pcbnew,(5.1.6)-1*
G04 #@! TF.CreationDate,2020-08-19T07:45:27+09:00*
G04 #@! TF.ProjectId,ExiCape,45786943-6170-4652-9e6b-696361645f70,Rev.2.0*
G04 #@! TF.SameCoordinates,Original*
G04 #@! TF.FileFunction,Soldermask,Top*
G04 #@! TF.FilePolarity,Negative*
%FSLAX46Y46*%
G04 Gerber Fmt 4.6, Leading zero omitted, Abs format (unit mm)*
G04 Created by KiCad (PCBNEW (5.1.6)-1) date 2020-08-19 07:45:27*
%MOMM*%
%LPD*%
G01*
G04 APERTURE LIST*
%ADD10R,1.500000X1.000000*%
%ADD11C,0.100000*%
%ADD12O,1.700000X1.700000*%
%ADD13R,1.700000X1.700000*%
%ADD14O,1.400000X1.400000*%
%ADD15C,1.400000*%
%ADD16C,1.800000*%
%ADD17R,1.800000X1.800000*%
%ADD18R,1.600000X1.600000*%
%ADD19O,1.600000X1.600000*%
%ADD20C,1.524000*%
%ADD21C,1.600000*%
%ADD22R,0.800000X0.900000*%
%ADD23O,1.500000X1.500000*%
%ADD24R,1.500000X1.500000*%
%ADD25C,2.000000*%
%ADD26R,1.727200X1.727200*%
%ADD27O,1.727200X1.727200*%
G04 APERTURE END LIST*
D10*
G04 #@! TO.C,JP1*
X145326100Y-81178400D03*
D11*
G36*
X144576702Y-79878400D02*
G01*
X144576702Y-79853866D01*
X144581512Y-79805035D01*
X144591084Y-79756910D01*
X144605328Y-79709955D01*
X144624105Y-79664622D01*
X144647236Y-79621349D01*
X144674496Y-79580550D01*
X144705624Y-79542621D01*
X144740321Y-79507924D01*
X144778250Y-79476796D01*
X144819049Y-79449536D01*
X144862322Y-79426405D01*
X144907655Y-79407628D01*
X144954610Y-79393384D01*
X145002735Y-79383812D01*
X145051566Y-79379002D01*
X145076100Y-79379002D01*
X145076100Y-79378400D01*
X145576100Y-79378400D01*
X145576100Y-79379002D01*
X145600634Y-79379002D01*
X145649465Y-79383812D01*
X145697590Y-79393384D01*
X145744545Y-79407628D01*
X145789878Y-79426405D01*
X145833151Y-79449536D01*
X145873950Y-79476796D01*
X145911879Y-79507924D01*
X145946576Y-79542621D01*
X145977704Y-79580550D01*
X146004964Y-79621349D01*
X146028095Y-79664622D01*
X146046872Y-79709955D01*
X146061116Y-79756910D01*
X146070688Y-79805035D01*
X146075498Y-79853866D01*
X146075498Y-79878400D01*
X146076100Y-79878400D01*
X146076100Y-80428400D01*
X144576100Y-80428400D01*
X144576100Y-79878400D01*
X144576702Y-79878400D01*
G37*
G36*
X146076100Y-81928400D02*
G01*
X146076100Y-82478400D01*
X146075498Y-82478400D01*
X146075498Y-82502934D01*
X146070688Y-82551765D01*
X146061116Y-82599890D01*
X146046872Y-82646845D01*
X146028095Y-82692178D01*
X146004964Y-82735451D01*
X145977704Y-82776250D01*
X145946576Y-82814179D01*
X145911879Y-82848876D01*
X145873950Y-82880004D01*
X145833151Y-82907264D01*
X145789878Y-82930395D01*
X145744545Y-82949172D01*
X145697590Y-82963416D01*
X145649465Y-82972988D01*
X145600634Y-82977798D01*
X145576100Y-82977798D01*
X145576100Y-82978400D01*
X145076100Y-82978400D01*
X145076100Y-82977798D01*
X145051566Y-82977798D01*
X145002735Y-82972988D01*
X144954610Y-82963416D01*
X144907655Y-82949172D01*
X144862322Y-82930395D01*
X144819049Y-82907264D01*
X144778250Y-82880004D01*
X144740321Y-82848876D01*
X144705624Y-82814179D01*
X144674496Y-82776250D01*
X144647236Y-82735451D01*
X144624105Y-82692178D01*
X144605328Y-82646845D01*
X144591084Y-82599890D01*
X144581512Y-82551765D01*
X144576702Y-82502934D01*
X144576702Y-82478400D01*
X144576100Y-82478400D01*
X144576100Y-81928400D01*
X146076100Y-81928400D01*
G37*
G04 #@! TD*
D12*
G04 #@! TO.C,J8*
X116370100Y-54762400D03*
D13*
X116370100Y-52222400D03*
G04 #@! TD*
D14*
G04 #@! TO.C,R9*
X143040000Y-114452000D03*
D15*
X145580000Y-114452000D03*
G04 #@! TD*
D14*
G04 #@! TO.C,R12*
X150660000Y-82702400D03*
D15*
X148120000Y-82702400D03*
G04 #@! TD*
D14*
G04 #@! TO.C,R11*
X148120000Y-85242400D03*
D15*
X148120000Y-87782400D03*
G04 #@! TD*
D16*
G04 #@! TO.C,D13*
X140500000Y-114452000D03*
D17*
X137960000Y-114452000D03*
G04 #@! TD*
D18*
G04 #@! TO.C,RN1*
X145580000Y-67462400D03*
D19*
X143040000Y-67462400D03*
X140500000Y-67462400D03*
X137960000Y-67462400D03*
X135420000Y-67462400D03*
G04 #@! TD*
D13*
G04 #@! TO.C,J6*
X126530000Y-58572400D03*
D12*
X126530000Y-61112400D03*
X126530000Y-63652400D03*
X126530000Y-66192400D03*
X126530000Y-68732400D03*
G04 #@! TD*
D20*
G04 #@! TO.C,J3*
X151930000Y-67462400D03*
X157010000Y-67462400D03*
X151930000Y-70002400D03*
X157010000Y-70002400D03*
X151930000Y-72542400D03*
X157010000Y-72542400D03*
X151930000Y-75082400D03*
X157010000Y-75082400D03*
X151930000Y-77622400D03*
X157010000Y-77622400D03*
G04 #@! TD*
D19*
G04 #@! TO.C,RN2*
X155740000Y-63652400D03*
X155740000Y-61112400D03*
X155740000Y-58572400D03*
X155740000Y-56032400D03*
D18*
X155740000Y-53492400D03*
G04 #@! TD*
D20*
G04 #@! TO.C,J4*
X153200000Y-118897000D03*
X153200000Y-123977000D03*
X150660000Y-118897000D03*
X150660000Y-123977000D03*
X148120000Y-118897000D03*
X148120000Y-123977000D03*
X145580000Y-118897000D03*
X145580000Y-123977000D03*
X143040000Y-118897000D03*
X143040000Y-123977000D03*
G04 #@! TD*
G04 #@! TO.C,J5*
X157010000Y-110642000D03*
X151930000Y-110642000D03*
X157010000Y-108102000D03*
X151930000Y-108102000D03*
X157010000Y-105562000D03*
X151930000Y-105562000D03*
X157010000Y-103022000D03*
X151930000Y-103022000D03*
G04 #@! TD*
D21*
G04 #@! TO.C,F1*
X120180100Y-55952400D03*
X120180100Y-50952400D03*
G04 #@! TD*
D13*
G04 #@! TO.C,J7*
X122085000Y-85242400D03*
D12*
X122085000Y-87782400D03*
X122085000Y-90322400D03*
X122085000Y-92862400D03*
X122085000Y-95402400D03*
X122085000Y-97942400D03*
G04 #@! TD*
D20*
G04 #@! TO.C,J1*
X151930000Y-85242400D03*
X157010000Y-85242400D03*
X151930000Y-87782400D03*
X157010000Y-87782400D03*
X151930000Y-90322400D03*
X157010000Y-90322400D03*
X151930000Y-92862400D03*
X157010000Y-92862400D03*
X151930000Y-95402400D03*
X157010000Y-95402400D03*
G04 #@! TD*
D12*
G04 #@! TO.C,J2*
X145580000Y-110642000D03*
X143040000Y-110642000D03*
X140500000Y-110642000D03*
X137960000Y-110642000D03*
D13*
X135420000Y-110642000D03*
G04 #@! TD*
D21*
G04 #@! TO.C,C4*
X130300100Y-52222400D03*
D18*
X127800100Y-52222400D03*
G04 #@! TD*
G04 #@! TO.C,U1*
G36*
G01*
X146065000Y-69362400D02*
X146365000Y-69362400D01*
G75*
G02*
X146515000Y-69512400I0J-150000D01*
G01*
X146515000Y-71187400D01*
G75*
G02*
X146365000Y-71337400I-150000J0D01*
G01*
X146065000Y-71337400D01*
G75*
G02*
X145915000Y-71187400I0J150000D01*
G01*
X145915000Y-69512400D01*
G75*
G02*
X146065000Y-69362400I150000J0D01*
G01*
G37*
G36*
G01*
X144795000Y-69362400D02*
X145095000Y-69362400D01*
G75*
G02*
X145245000Y-69512400I0J-150000D01*
G01*
X145245000Y-71187400D01*
G75*
G02*
X145095000Y-71337400I-150000J0D01*
G01*
X144795000Y-71337400D01*
G75*
G02*
X144645000Y-71187400I0J150000D01*
G01*
X144645000Y-69512400D01*
G75*
G02*
X144795000Y-69362400I150000J0D01*
G01*
G37*
G36*
G01*
X143525000Y-69362400D02*
X143825000Y-69362400D01*
G75*
G02*
X143975000Y-69512400I0J-150000D01*
G01*
X143975000Y-71187400D01*
G75*
G02*
X143825000Y-71337400I-150000J0D01*
G01*
X143525000Y-71337400D01*
G75*
G02*
X143375000Y-71187400I0J150000D01*
G01*
X143375000Y-69512400D01*
G75*
G02*
X143525000Y-69362400I150000J0D01*
G01*
G37*
G36*
G01*
X142255000Y-69362400D02*
X142555000Y-69362400D01*
G75*
G02*
X142705000Y-69512400I0J-150000D01*
G01*
X142705000Y-71187400D01*
G75*
G02*
X142555000Y-71337400I-150000J0D01*
G01*
X142255000Y-71337400D01*
G75*
G02*
X142105000Y-71187400I0J150000D01*
G01*
X142105000Y-69512400D01*
G75*
G02*
X142255000Y-69362400I150000J0D01*
G01*
G37*
G36*
G01*
X140985000Y-69362400D02*
X141285000Y-69362400D01*
G75*
G02*
X141435000Y-69512400I0J-150000D01*
G01*
X141435000Y-71187400D01*
G75*
G02*
X141285000Y-71337400I-150000J0D01*
G01*
X140985000Y-71337400D01*
G75*
G02*
X140835000Y-71187400I0J150000D01*
G01*
X140835000Y-69512400D01*
G75*
G02*
X140985000Y-69362400I150000J0D01*
G01*
G37*
G36*
G01*
X139715000Y-69362400D02*
X140015000Y-69362400D01*
G75*
G02*
X140165000Y-69512400I0J-150000D01*
G01*
X140165000Y-71187400D01*
G75*
G02*
X140015000Y-71337400I-150000J0D01*
G01*
X139715000Y-71337400D01*
G75*
G02*
X139565000Y-71187400I0J150000D01*
G01*
X139565000Y-69512400D01*
G75*
G02*
X139715000Y-69362400I150000J0D01*
G01*
G37*
G36*
G01*
X138445000Y-69362400D02*
X138745000Y-69362400D01*
G75*
G02*
X138895000Y-69512400I0J-150000D01*
G01*
X138895000Y-71187400D01*
G75*
G02*
X138745000Y-71337400I-150000J0D01*
G01*
X138445000Y-71337400D01*
G75*
G02*
X138295000Y-71187400I0J150000D01*
G01*
X138295000Y-69512400D01*
G75*
G02*
X138445000Y-69362400I150000J0D01*
G01*
G37*
G36*
G01*
X137175000Y-69362400D02*
X137475000Y-69362400D01*
G75*
G02*
X137625000Y-69512400I0J-150000D01*
G01*
X137625000Y-71187400D01*
G75*
G02*
X137475000Y-71337400I-150000J0D01*
G01*
X137175000Y-71337400D01*
G75*
G02*
X137025000Y-71187400I0J150000D01*
G01*
X137025000Y-69512400D01*
G75*
G02*
X137175000Y-69362400I150000J0D01*
G01*
G37*
G36*
G01*
X135905000Y-69362400D02*
X136205000Y-69362400D01*
G75*
G02*
X136355000Y-69512400I0J-150000D01*
G01*
X136355000Y-71187400D01*
G75*
G02*
X136205000Y-71337400I-150000J0D01*
G01*
X135905000Y-71337400D01*
G75*
G02*
X135755000Y-71187400I0J150000D01*
G01*
X135755000Y-69512400D01*
G75*
G02*
X135905000Y-69362400I150000J0D01*
G01*
G37*
G36*
G01*
X134635000Y-69362400D02*
X134935000Y-69362400D01*
G75*
G02*
X135085000Y-69512400I0J-150000D01*
G01*
X135085000Y-71187400D01*
G75*
G02*
X134935000Y-71337400I-150000J0D01*
G01*
X134635000Y-71337400D01*
G75*
G02*
X134485000Y-71187400I0J150000D01*
G01*
X134485000Y-69512400D01*
G75*
G02*
X134635000Y-69362400I150000J0D01*
G01*
G37*
G36*
G01*
X134635000Y-76287400D02*
X134935000Y-76287400D01*
G75*
G02*
X135085000Y-76437400I0J-150000D01*
G01*
X135085000Y-78112400D01*
G75*
G02*
X134935000Y-78262400I-150000J0D01*
G01*
X134635000Y-78262400D01*
G75*
G02*
X134485000Y-78112400I0J150000D01*
G01*
X134485000Y-76437400D01*
G75*
G02*
X134635000Y-76287400I150000J0D01*
G01*
G37*
G36*
G01*
X135905000Y-76287400D02*
X136205000Y-76287400D01*
G75*
G02*
X136355000Y-76437400I0J-150000D01*
G01*
X136355000Y-78112400D01*
G75*
G02*
X136205000Y-78262400I-150000J0D01*
G01*
X135905000Y-78262400D01*
G75*
G02*
X135755000Y-78112400I0J150000D01*
G01*
X135755000Y-76437400D01*
G75*
G02*
X135905000Y-76287400I150000J0D01*
G01*
G37*
G36*
G01*
X137175000Y-76287400D02*
X137475000Y-76287400D01*
G75*
G02*
X137625000Y-76437400I0J-150000D01*
G01*
X137625000Y-78112400D01*
G75*
G02*
X137475000Y-78262400I-150000J0D01*
G01*
X137175000Y-78262400D01*
G75*
G02*
X137025000Y-78112400I0J150000D01*
G01*
X137025000Y-76437400D01*
G75*
G02*
X137175000Y-76287400I150000J0D01*
G01*
G37*
G36*
G01*
X138445000Y-76287400D02*
X138745000Y-76287400D01*
G75*
G02*
X138895000Y-76437400I0J-150000D01*
G01*
X138895000Y-78112400D01*
G75*
G02*
X138745000Y-78262400I-150000J0D01*
G01*
X138445000Y-78262400D01*
G75*
G02*
X138295000Y-78112400I0J150000D01*
G01*
X138295000Y-76437400D01*
G75*
G02*
X138445000Y-76287400I150000J0D01*
G01*
G37*
G36*
G01*
X139715000Y-76287400D02*
X140015000Y-76287400D01*
G75*
G02*
X140165000Y-76437400I0J-150000D01*
G01*
X140165000Y-78112400D01*
G75*
G02*
X140015000Y-78262400I-150000J0D01*
G01*
X139715000Y-78262400D01*
G75*
G02*
X139565000Y-78112400I0J150000D01*
G01*
X139565000Y-76437400D01*
G75*
G02*
X139715000Y-76287400I150000J0D01*
G01*
G37*
G36*
G01*
X140985000Y-76287400D02*
X141285000Y-76287400D01*
G75*
G02*
X141435000Y-76437400I0J-150000D01*
G01*
X141435000Y-78112400D01*
G75*
G02*
X141285000Y-78262400I-150000J0D01*
G01*
X140985000Y-78262400D01*
G75*
G02*
X140835000Y-78112400I0J150000D01*
G01*
X140835000Y-76437400D01*
G75*
G02*
X140985000Y-76287400I150000J0D01*
G01*
G37*
G36*
G01*
X142255000Y-76287400D02*
X142555000Y-76287400D01*
G75*
G02*
X142705000Y-76437400I0J-150000D01*
G01*
X142705000Y-78112400D01*
G75*
G02*
X142555000Y-78262400I-150000J0D01*
G01*
X142255000Y-78262400D01*
G75*
G02*
X142105000Y-78112400I0J150000D01*
G01*
X142105000Y-76437400D01*
G75*
G02*
X142255000Y-76287400I150000J0D01*
G01*
G37*
G36*
G01*
X143525000Y-76287400D02*
X143825000Y-76287400D01*
G75*
G02*
X143975000Y-76437400I0J-150000D01*
G01*
X143975000Y-78112400D01*
G75*
G02*
X143825000Y-78262400I-150000J0D01*
G01*
X143525000Y-78262400D01*
G75*
G02*
X143375000Y-78112400I0J150000D01*
G01*
X143375000Y-76437400D01*
G75*
G02*
X143525000Y-76287400I150000J0D01*
G01*
G37*
G36*
G01*
X144795000Y-76287400D02*
X145095000Y-76287400D01*
G75*
G02*
X145245000Y-76437400I0J-150000D01*
G01*
X145245000Y-78112400D01*
G75*
G02*
X145095000Y-78262400I-150000J0D01*
G01*
X144795000Y-78262400D01*
G75*
G02*
X144645000Y-78112400I0J150000D01*
G01*
X144645000Y-76437400D01*
G75*
G02*
X144795000Y-76287400I150000J0D01*
G01*
G37*
G36*
G01*
X146065000Y-76287400D02*
X146365000Y-76287400D01*
G75*
G02*
X146515000Y-76437400I0J-150000D01*
G01*
X146515000Y-78112400D01*
G75*
G02*
X146365000Y-78262400I-150000J0D01*
G01*
X146065000Y-78262400D01*
G75*
G02*
X145915000Y-78112400I0J150000D01*
G01*
X145915000Y-76437400D01*
G75*
G02*
X146065000Y-76287400I150000J0D01*
G01*
G37*
G04 #@! TD*
D22*
G04 #@! TO.C,U2*
X123990000Y-51492400D03*
X124940000Y-53492400D03*
X123040000Y-53492400D03*
G04 #@! TD*
D21*
G04 #@! TO.C,C3*
X123990000Y-45912400D03*
X123990000Y-48412400D03*
G04 #@! TD*
G04 #@! TO.C,C2*
X118910000Y-48412400D03*
X118910000Y-45912400D03*
G04 #@! TD*
D23*
G04 #@! TO.C,D17*
X132118000Y-125882000D03*
D24*
X132118000Y-123342000D03*
G04 #@! TD*
D23*
G04 #@! TO.C,D16*
X132118000Y-116230000D03*
D24*
X132118000Y-113690000D03*
G04 #@! TD*
D23*
G04 #@! TO.C,D15*
X129070000Y-125882000D03*
D24*
X129070000Y-123342000D03*
G04 #@! TD*
D23*
G04 #@! TO.C,D14*
X129070000Y-116230000D03*
D24*
X129070000Y-113690000D03*
G04 #@! TD*
D23*
G04 #@! TO.C,D12*
X126022000Y-125882000D03*
D24*
X126022000Y-123342000D03*
G04 #@! TD*
D23*
G04 #@! TO.C,D11*
X126022000Y-116230000D03*
D24*
X126022000Y-113690000D03*
G04 #@! TD*
D23*
G04 #@! TO.C,D10*
X122974000Y-125882000D03*
D24*
X122974000Y-123342000D03*
G04 #@! TD*
D23*
G04 #@! TO.C,D9*
X122974000Y-116230000D03*
D24*
X122974000Y-113690000D03*
G04 #@! TD*
D19*
G04 #@! TO.C,IC1*
X144310000Y-85242400D03*
X136690000Y-105562400D03*
X144310000Y-87782400D03*
X136690000Y-103022400D03*
X144310000Y-90322400D03*
X136690000Y-100482400D03*
X144310000Y-92862400D03*
X136690000Y-97942400D03*
X144310000Y-95402400D03*
X136690000Y-95402400D03*
X144310000Y-97942400D03*
X136690000Y-92862400D03*
X144310000Y-100482400D03*
X136690000Y-90322400D03*
X144310000Y-103022400D03*
X136690000Y-87782400D03*
X144310000Y-105562400D03*
D18*
X136690000Y-85242400D03*
G04 #@! TD*
D19*
G04 #@! TO.C,RN3*
X132880000Y-119532000D03*
X130340000Y-119532000D03*
X127800000Y-119532000D03*
X125260000Y-119532000D03*
D18*
X122720000Y-119532000D03*
G04 #@! TD*
D21*
G04 #@! TO.C,SW3*
X158915000Y-120167000D03*
X158915000Y-122707000D03*
X158915000Y-125247000D03*
G04 #@! TD*
D25*
G04 #@! TO.C,SW2*
X166535000Y-51587400D03*
X166535000Y-59207400D03*
G04 #@! TD*
G04 #@! TO.C,SW1*
X160820000Y-51587400D03*
X160820000Y-59207400D03*
G04 #@! TD*
D14*
G04 #@! TO.C,R10*
X161455000Y-116992000D03*
D15*
X158915000Y-116992000D03*
G04 #@! TD*
D14*
G04 #@! TO.C,R13*
X127800000Y-45872400D03*
D15*
X127800000Y-48412400D03*
G04 #@! TD*
D14*
G04 #@! TO.C,R8*
X132880000Y-109372000D03*
D15*
X130340000Y-109372000D03*
G04 #@! TD*
D14*
G04 #@! TO.C,R7*
X132880000Y-105562000D03*
D15*
X130340000Y-105562000D03*
G04 #@! TD*
D14*
G04 #@! TO.C,R6*
X132880000Y-101752000D03*
D15*
X130340000Y-101752000D03*
G04 #@! TD*
D14*
G04 #@! TO.C,R5*
X132880000Y-97942400D03*
D15*
X130340000Y-97942400D03*
G04 #@! TD*
D14*
G04 #@! TO.C,R4*
X132880000Y-92862400D03*
D15*
X130340000Y-92862400D03*
G04 #@! TD*
D14*
G04 #@! TO.C,R3*
X132880000Y-89052400D03*
D15*
X130340000Y-89052400D03*
G04 #@! TD*
D14*
G04 #@! TO.C,R2*
X132880000Y-85242400D03*
D15*
X130340000Y-85242400D03*
G04 #@! TD*
D14*
G04 #@! TO.C,R1*
X132880000Y-81432400D03*
D15*
X130340000Y-81432400D03*
G04 #@! TD*
D16*
G04 #@! TO.C,D18*
X131610000Y-45872400D03*
D17*
X131610000Y-48412400D03*
G04 #@! TD*
D16*
G04 #@! TO.C,D8*
X127800000Y-109372000D03*
D17*
X125260000Y-109372000D03*
G04 #@! TD*
D16*
G04 #@! TO.C,D7*
X127800000Y-105562000D03*
D17*
X125260000Y-105562000D03*
G04 #@! TD*
D16*
G04 #@! TO.C,D6*
X127800000Y-101752000D03*
D17*
X125260000Y-101752000D03*
G04 #@! TD*
D16*
G04 #@! TO.C,D5*
X127800000Y-97942400D03*
D17*
X125260000Y-97942400D03*
G04 #@! TD*
D16*
G04 #@! TO.C,D4*
X127800000Y-92862400D03*
D17*
X125260000Y-92862400D03*
G04 #@! TD*
D16*
G04 #@! TO.C,D3*
X127800000Y-89052400D03*
D17*
X125260000Y-89052400D03*
G04 #@! TD*
D16*
G04 #@! TO.C,D2*
X127800000Y-85242400D03*
D17*
X125260000Y-85242400D03*
G04 #@! TD*
D16*
G04 #@! TO.C,D1*
X127800000Y-81432400D03*
D17*
X125260000Y-81432400D03*
G04 #@! TD*
D21*
G04 #@! TO.C,C1*
X141135100Y-82662400D03*
X141135100Y-80162400D03*
G04 #@! TD*
D26*
G04 #@! TO.C,P2*
X164630000Y-62382400D03*
D27*
X167170000Y-62382400D03*
X164630000Y-64922400D03*
X167170000Y-64922400D03*
X164630000Y-67462400D03*
X167170000Y-67462400D03*
X164630000Y-70002400D03*
X167170000Y-70002400D03*
X164630000Y-72542400D03*
X167170000Y-72542400D03*
X164630000Y-75082400D03*
X167170000Y-75082400D03*
X164630000Y-77622400D03*
X167170000Y-77622400D03*
X164630000Y-80162400D03*
X167170000Y-80162400D03*
X164630000Y-82702400D03*
X167170000Y-82702400D03*
X164630000Y-85242400D03*
X167170000Y-85242400D03*
X164630000Y-87782400D03*
X167170000Y-87782400D03*
X164630000Y-90322400D03*
X167170000Y-90322400D03*
X164630000Y-92862400D03*
X167170000Y-92862400D03*
X164630000Y-95402400D03*
X167170000Y-95402400D03*
X164630000Y-97942400D03*
X167170000Y-97942400D03*
X164630000Y-100482400D03*
X167170000Y-100482400D03*
X164630000Y-103022400D03*
X167170000Y-103022400D03*
X164630000Y-105562400D03*
X167170000Y-105562400D03*
X164630000Y-108102400D03*
X167170000Y-108102400D03*
X164630000Y-110642400D03*
X167170000Y-110642400D03*
X164630000Y-113182400D03*
X167170000Y-113182400D03*
X164630000Y-115722400D03*
X167170000Y-115722400D03*
X164630000Y-118262400D03*
X167170000Y-118262400D03*
G04 #@! TD*
D26*
G04 #@! TO.C,P1*
X116370000Y-62382400D03*
D27*
X118910000Y-62382400D03*
X116370000Y-64922400D03*
X118910000Y-64922400D03*
X116370000Y-67462400D03*
X118910000Y-67462400D03*
X116370000Y-70002400D03*
X118910000Y-70002400D03*
X116370000Y-72542400D03*
X118910000Y-72542400D03*
X116370000Y-75082400D03*
X118910000Y-75082400D03*
X116370000Y-77622400D03*
X118910000Y-77622400D03*
X116370000Y-80162400D03*
X118910000Y-80162400D03*
X116370000Y-82702400D03*
X118910000Y-82702400D03*
X116370000Y-85242400D03*
X118910000Y-85242400D03*
X116370000Y-87782400D03*
X118910000Y-87782400D03*
X116370000Y-90322400D03*
X118910000Y-90322400D03*
X116370000Y-92862400D03*
X118910000Y-92862400D03*
X116370000Y-95402400D03*
X118910000Y-95402400D03*
X116370000Y-97942400D03*
X118910000Y-97942400D03*
X116370000Y-100482400D03*
X118910000Y-100482400D03*
X116370000Y-103022400D03*
X118910000Y-103022400D03*
X116370000Y-105562400D03*
X118910000Y-105562400D03*
X116370000Y-108102400D03*
X118910000Y-108102400D03*
X116370000Y-110642400D03*
X118910000Y-110642400D03*
X116370000Y-113182400D03*
X118910000Y-113182400D03*
X116370000Y-115722400D03*
X118910000Y-115722400D03*
X116370000Y-118262400D03*
X118910000Y-118262400D03*
G04 #@! TD*
M02*
